<?xml version="1.0" encoding="utf-8"?>
<!-- Generator: Adobe Illustrator 16.0.0, SVG Export Plug-In . SVG Version: 6.00 Build 0)  -->
<!DOCTYPE svg PUBLIC "-//W3C//DTD SVG 1.1//EN" "http://www.w3.org/Graphics/SVG/1.1/DTD/svg11.dtd">
<svg version="1.1" id="Capa_1" xmlns="http://www.w3.org/2000/svg" xmlns:xlink="http://www.w3.org/1999/xlink" x="0px" y="0px"
	 width="479.167px" height="157.667px" viewBox="0 0 479.167 157.667" enable-background="new 0 0 479.167 157.667"
	 xml:space="preserve">
<g>
	<path fill="#FFFFFF" stroke="#F29100" stroke-miterlimit="10" d="M150.917,30.809h14.595v34.255
		c4.1-6.031,10.011-11.218,19.902-11.218c14.353,0,22.675,9.65,22.675,24.485v40.526h-14.595V82.674
		c0-9.891-4.945-15.56-13.629-15.56c-8.444,0-14.353,5.91-14.353,15.801v35.942h-14.595V30.809z"/>
	<path fill="#FFFFFF" stroke="#F29100" stroke-miterlimit="10" d="M222.201,87.257v-0.241c0-18.213,12.906-33.17,31.119-33.17
		c20.262,0,30.514,15.922,30.514,34.255c0,1.328-0.118,2.654-0.24,4.102h-46.798c1.567,10.372,8.926,16.162,18.333,16.162
		c7.115,0,12.182-2.653,17.248-7.599l8.563,7.599c-6.03,7.237-14.353,11.941-26.053,11.941
		C236.433,120.306,222.201,106.917,222.201,87.257z M269.362,82.554c-0.965-9.409-6.514-16.767-16.163-16.767
		c-8.925,0-15.197,6.875-16.525,16.767H269.362z"/>
	<path fill="#FFFFFF" stroke="#F29100" stroke-miterlimit="10" d="M299.394,30.809h14.596v88.049h-14.596V30.809z"/>
	<path fill="#FFFFFF" stroke="#F29100" stroke-miterlimit="10" d="M333.047,55.174h14.593v10.614
		c4.705-6.633,11.339-11.941,21.591-11.941c15.077,0,29.67,11.941,29.67,33.049v0.241c0,21.109-14.471,33.051-29.67,33.051
		c-10.492,0-17.128-5.308-21.591-11.219v29.19h-14.593V55.174z M384.066,87.136v-0.241c0-12.302-8.321-20.384-18.211-20.384
		c-9.892,0-18.575,8.201-18.575,20.384v0.241c0,12.305,8.684,20.384,18.575,20.384C375.865,107.521,384.066,99.68,384.066,87.136z"
		/>
	<path fill="#FFFFFF" stroke="#F29100" stroke-miterlimit="10" d="M410.365,87.379v-0.243c0-18.212,14.473-33.29,34.011-33.29
		c19.541,0,33.894,14.836,33.894,33.049v0.241c0,18.093-14.473,33.17-34.134,33.17C424.715,120.306,410.365,105.471,410.365,87.379z
		 M463.674,87.379v-0.243c0-11.216-8.081-20.504-19.539-20.504c-11.699,0-19.178,9.167-19.178,20.263v0.241
		c0,11.097,8.081,20.506,19.418,20.506C456.198,107.643,463.674,98.356,463.674,87.379z"/>
</g>
<g>
	<circle fill="#FFFFFF" stroke="#F29100" stroke-miterlimit="10" cx="27.979" cy="13.695" r="12.83"/>
	<circle fill="#FFFFFF" stroke="#F29100" stroke-miterlimit="10" cx="102.298" cy="13.695" r="12.83"/>
	<path fill="#FFFFFF" stroke="#F29100" stroke-miterlimit="10" d="M127.99,61.324c0,0-1.334-2.631-9.274-5.025l-1.132-0.312v-0.274
		v-6.388c0-8.442-6.843-15.284-15.285-15.284c-8.442,0-15.286,6.842-15.286,15.284l0,30.767c-6.732,2.513-14.288,4.182-22.365,4.182
		c-7.752,0-14.815-1.952-21.382-3.829V49.325c0-8.442-6.843-15.284-15.285-15.284s-15.286,6.842-15.286,15.284v5.968
		c0,0-11.767,0.584-11.767,6.717c0,4.416,6.737,15.736,9.962,18.961c0.724,0.725,0.799,0.823,1.805,1.722v58.825
		c0,8.441,6.844,15.285,15.286,15.285s15.285-6.844,15.285-15.285v-38.284c7.873,3.72,16.129,6.326,23.661,6.326
		c6.685,0,13.566-2.134,20.087-5.287v37.245c0,8.441,6.843,15.285,15.286,15.285c8.442,0,15.285-6.844,15.285-15.285V81.822v-0.978
		C121.203,77.356,127.99,67.16,127.99,61.324z"/>
</g>
</svg>
