<?xml version="1.0" encoding="utf-8"?>
<!-- Generator: Adobe Illustrator 16.0.0, SVG Export Plug-In . SVG Version: 6.00 Build 0)  -->
<!DOCTYPE svg PUBLIC "-//W3C//DTD SVG 1.1//EN" "http://www.w3.org/Graphics/SVG/1.1/DTD/svg11.dtd">
<svg version="1.1" id="Capa_1" xmlns="http://www.w3.org/2000/svg" xmlns:xlink="http://www.w3.org/1999/xlink" x="0px" y="0px"
	 width="304.078px" height="472.638px" viewBox="0 0 304.078 472.638" enable-background="new 0 0 304.078 472.638"
	 xml:space="preserve">
<g>
	<g>
		<g>
			<g>
				<g>
					<linearGradient id="SVGID_1_" gradientUnits="userSpaceOnUse" x1="156.9316" y1="121.9678" x2="292.9896" y2="258.0258">
						<stop  offset="0" style="stop-color:#E94E1B"/>
						<stop  offset="1" style="stop-color:#F5DA1B"/>
					</linearGradient>
					<path fill="url(#SVGID_1_)" d="M255.673,282.619c0,16.962-13.751,30.713-30.713,30.713l0,0
						c-16.964,0-30.713-13.751-30.713-30.713V97.373c0-16.962,13.749-30.712,30.713-30.712l0,0c16.962,0,30.713,13.75,30.713,30.712
						V282.619z"/>
				</g>
				<linearGradient id="SVGID_2_" gradientUnits="userSpaceOnUse" x1="159.2256" y1="119.8252" x2="295.2083" y2="255.8079">
					<stop  offset="0" style="stop-color:#E94E1B"/>
					<stop  offset="1" style="stop-color:#F5DA1B"/>
				</linearGradient>
				<path fill="url(#SVGID_2_)" d="M224.96,66.661c-11.318,0-21.1,6.192-26.427,15.31c14.917,2.105,26.427,14.786,26.427,30.282
					v185.244c0,5.642-1.635,10.86-4.285,15.399c1.412,0.199,2.817,0.436,4.285,0.436c16.962,0,30.713-13.751,30.713-30.713V97.373
					C255.673,80.41,241.922,66.661,224.96,66.661z"/>
				<g>
					<g>
						
							<linearGradient id="SVGID_3_" gradientUnits="userSpaceOnUse" x1="-169.2021" y1="121.9673" x2="-33.1442" y2="258.0253" gradientTransform="matrix(-1 0 0 1 -25.5449 0)">
							<stop  offset="0" style="stop-color:#E94E1B"/>
							<stop  offset="1" style="stop-color:#F5DA1B"/>
						</linearGradient>
						<path fill="url(#SVGID_3_)" d="M44.914,282.619c0,16.962,13.752,30.713,30.715,30.713l0,0
							c16.962,0,30.713-13.751,30.713-30.713V97.373c0-16.962-13.751-30.712-30.713-30.712l0,0
							c-16.963,0-30.715,13.75-30.715,30.712V282.619z"/>
					</g>
					
						<linearGradient id="SVGID_4_" gradientUnits="userSpaceOnUse" x1="-166.9097" y1="119.8242" x2="-30.9263" y2="255.8076" gradientTransform="matrix(-1 0 0 1 -25.5449 0)">
						<stop  offset="0" style="stop-color:#E94E1B"/>
						<stop  offset="1" style="stop-color:#F5DA1B"/>
					</linearGradient>
					<path fill="url(#SVGID_4_)" d="M75.629,66.661c11.322,0,21.101,6.192,26.429,15.31c-14.915,2.105-26.429,14.786-26.429,30.282
						v185.244c0,5.642,1.633,10.86,4.286,15.399c-1.415,0.199-2.818,0.436-4.286,0.436c-16.963,0-30.715-13.751-30.715-30.713
						V97.373C44.914,80.41,58.666,66.661,75.629,66.661z"/>
				</g>
			</g>
			<g>
				<linearGradient id="SVGID_5_" gradientUnits="userSpaceOnUse" x1="21.2705" y1="163.8843" x2="277.3369" y2="163.8843">
					<stop  offset="0" style="stop-color:#E94E1B"/>
					<stop  offset="1" style="stop-color:#F5DA1B"/>
				</linearGradient>
				<path fill="url(#SVGID_5_)" d="M259.723,111.384l-4.05-1.175c0,0.973,0,2.157,0,3.355c0,7.538-45.928,54.033-106.367,54.033
					c-60.443,0-104.392-45.849-104.392-53.388c0-1.417,0-2.381,0-4.844c0,0-23.644,1.172-23.644,13.497
					c0,8.872,13.536,31.619,20.018,38.099c16.276,16.278,70.16,57.444,112.596,57.444c42.138,0,88.199-42.196,103.489-57.484
					c6.82-6.818,19.964-27.602,19.964-39.436C277.337,121.484,274.804,116.196,259.723,111.384z"/>
			</g>
		</g>
	</g>
	<linearGradient id="SVGID_6_" gradientUnits="userSpaceOnUse" x1="49.8447" y1="25.7808" x2="101.4092" y2="25.7808">
		<stop  offset="0" style="stop-color:#E94E1B"/>
		<stop  offset="1" style="stop-color:#F5DA1B"/>
	</linearGradient>
	<path fill="url(#SVGID_6_)" d="M101.409,25.782C101.409,11.545,89.865,0,75.629,0C61.391,0,49.845,11.545,49.845,25.782
		c0,14.237,11.546,25.779,25.784,25.779C89.865,51.561,101.409,40.019,101.409,25.782z"/>
	<linearGradient id="SVGID_7_" gradientUnits="userSpaceOnUse" x1="199.1768" y1="25.7808" x2="250.7422" y2="25.7808">
		<stop  offset="0" style="stop-color:#E94E1B"/>
		<stop  offset="1" style="stop-color:#F5DA1B"/>
	</linearGradient>
	<circle fill="url(#SVGID_7_)" cx="224.959" cy="25.782" r="25.783"/>
</g>
<g>
	<path fill="#F29100" d="M0,372.921h13.557v31.82c3.808-5.603,9.3-10.42,18.487-10.42c13.332,0,21.063,8.963,21.063,22.744v37.645
		H39.55v-33.611c0-9.188-4.594-14.452-12.66-14.452c-7.845,0-13.333,5.49-13.333,14.677v33.387H0V372.921z"/>
	<path fill="#F29100" d="M66.216,425.357v-0.224c0-16.918,11.988-30.812,28.906-30.812c18.822,0,28.346,14.79,28.346,31.819
		c0,1.233-0.11,2.466-0.224,3.811H79.773c1.455,9.635,8.291,15.013,17.03,15.013c6.609,0,11.315-2.464,16.021-7.059l7.954,7.059
		c-5.602,6.722-13.332,11.092-24.2,11.092C79.437,456.056,66.216,443.62,66.216,425.357z M110.023,420.989
		c-0.896-8.74-6.05-15.575-15.014-15.575c-8.292,0-14.116,6.385-15.35,15.575H110.023z"/>
	<path fill="#F29100" d="M137.921,372.921h13.559v81.789h-13.559V372.921z"/>
	<path fill="#F29100" d="M169.182,395.554h13.555v9.859c4.37-6.162,10.532-11.092,20.057-11.092c14.004,0,27.56,11.092,27.56,30.698
		v0.225c0,19.607-13.441,30.7-27.56,30.7c-9.747,0-15.91-4.931-20.057-10.421v27.114h-13.555V395.554z M216.573,425.245v-0.225
		c0-11.426-7.73-18.935-16.917-18.935c-9.188,0-17.254,7.618-17.254,18.935v0.225c0,11.43,8.065,18.935,17.254,18.935
		C208.955,444.179,216.573,436.896,216.573,425.245z"/>
	<path fill="#F29100" d="M241.002,425.47v-0.226c0-16.918,13.442-30.923,31.593-30.923c18.151,0,31.483,13.78,31.483,30.698v0.225
		c0,16.806-13.444,30.812-31.707,30.812C254.332,456.056,241.002,442.275,241.002,425.47z M290.521,425.47v-0.226
		c0-10.419-7.506-19.046-18.149-19.046c-10.868,0-17.814,8.515-17.814,18.821v0.225c0,10.308,7.506,19.048,18.038,19.048
		C283.575,444.292,290.521,435.667,290.521,425.47z"/>
</g>
</svg>
