<?xml version="1.0" encoding="utf-8"?>
<!-- Generator: Adobe Illustrator 19.2.1, SVG Export Plug-In . SVG Version: 6.00 Build 0)  -->
<svg version="1.1" id="Capa_1" xmlns="http://www.w3.org/2000/svg" xmlns:xlink="http://www.w3.org/1999/xlink" x="0px" y="0px"
	 width="809.8px" height="954px" viewBox="0 0 809.8 954" enable-background="new 0 0 809.8 954" xml:space="preserve">
<g>
	<path fill="#F29100" d="M224.9,793.7h-19.3V678h19.3v45.2c1.4-2,2.9-3.9,4.5-5.7s3.5-3.3,5.7-4.7s4.5-2.5,7.1-3.3s5.5-1.2,8.8-1.2
		c9.5,0,16.8,2.9,22,8.7s7.7,13.6,7.7,23.5v53.3h-19.3v-47.5c0-6.5-1.5-11.6-4.6-15.1s-7.5-5.3-13.1-5.3s-10.1,1.8-13.5,5.5
		c-3.5,3.6-5.2,8.7-5.2,15.3v47H224.9z M369.9,736.2c-1.7-5.5-4.2-10.3-7.5-14.4c-3.3-4.1-7.5-7.4-12.5-9.8
		c-5-2.4-10.9-3.6-17.5-3.6c-6,0-11.5,1.2-16.5,3.5s-9.3,5.5-12.9,9.4c-3.6,4-6.5,8.6-8.5,13.9c-2,5.3-3,10.9-3,17
		c0,6.6,1.1,12.5,3.3,17.8c2.2,5.3,5.3,9.9,9.1,13.7c3.9,3.8,8.4,6.8,13.6,8.9c5.2,2.1,10.9,3.2,16.9,3.2c7.7,0,14.4-1.4,19.9-4.3
		c5.6-2.9,10.3-6.7,14.4-11.4l-11.3-10c-3.4,3.3-6.8,5.8-10.3,7.5s-7.6,2.5-12.4,2.5c-6.2,0-11.5-1.8-15.9-5.5
		c-4.3-3.6-7.1-8.9-8.2-15.8h61.5c0.1-1,0.2-1.8,0.2-2.7c0.1-0.8,0.1-1.7,0.1-2.5C372.4,747.4,371.6,741.7,369.9,736.2z M310.4,746
		c0.8-6.6,3.2-11.9,7.1-15.9c3.9-4.1,8.7-6.1,14.7-6.1c3.2,0,6,0.6,8.5,1.7c2.5,1.2,4.6,2.7,6.4,4.7s3.2,4.3,4.3,7
		c1.1,2.7,1.7,5.6,2.1,8.6H310.4z M384.9,793.7V678h19.3v115.8h-19.3V793.7z M504.5,733.3c-2.2-5.4-5.1-10-8.8-13.7
		c-3.6-3.7-7.8-6.6-12.4-8.5s-9.4-2.9-14.4-2.9c-6.7,0-12.4,1.5-16.9,4.5s-8.3,6.7-11.4,11.2v-14h-19.3V819h19.3l-0.2-38.4
		c3,3.9,6.7,7.3,11.3,10.3c4.5,3,10.3,4.4,17.1,4.4c5,0,9.8-1,14.5-2.9s8.9-4.7,12.5-8.5s6.6-8.3,8.7-13.7
		c2.2-5.4,3.3-11.6,3.3-18.6C507.8,744.9,506.7,738.7,504.5,733.3z M486.6,763.1c-1.3,3.3-3,6.2-5.2,8.5s-4.7,4.1-7.6,5.4
		c-2.9,1.3-6,1.9-9.3,1.9s-6.4-0.6-9.4-1.9c-3-1.3-5.6-3.1-7.8-5.5c-2.2-2.4-4-5.2-5.3-8.5s-2-7-2-11.1s0.7-7.8,2-11.1
		s3.1-6.1,5.3-8.5c2.2-2.4,4.8-4.2,7.8-5.5s6.1-1.9,9.4-1.9s6.4,0.6,9.3,1.9c2.9,1.3,5.4,3.1,7.6,5.4c2.2,2.3,3.9,5.2,5.2,8.5
		c1.3,3.3,1.9,7.1,1.9,11.2C488.5,756,487.9,759.7,486.6,763.1z M600.9,734.9c-2.2-5.3-5.3-9.9-9.3-13.9s-8.7-7.1-14.1-9.4
		c-5.4-2.3-11.4-3.4-17.8-3.4s-12.4,1.2-17.8,3.5c-5.4,2.3-10.1,5.5-14.1,9.4c-4,4-7.1,8.6-9.4,14c-2.3,5.3-3.4,11-3.4,17
		s1.1,11.7,3.3,16.9s5.3,9.8,9.3,13.8s8.7,7.1,14.1,9.4c5.4,2.3,11.3,3.4,17.7,3.4s12.4-1.2,17.9-3.5s10.2-5.5,14.2-9.4
		c4-4,7.1-8.6,9.4-13.9c2.3-5.3,3.4-10.9,3.4-17C604.2,745.9,603.1,740.2,600.9,734.9z M583.2,762.6c-1.2,3.2-2.8,6.1-5,8.5
		s-4.9,4.4-8,5.8c-3.1,1.4-6.6,2.1-10.5,2.1c-3.7,0-7.1-0.7-10.2-2.1c-3.1-1.4-5.8-3.4-8-5.8c-2.3-2.4-4-5.3-5.3-8.6
		s-1.9-6.8-1.9-10.5s0.6-7.2,1.7-10.4c1.2-3.2,2.8-6,5-8.5c2.2-2.4,4.9-4.4,8-5.8c3.1-1.4,6.5-2.1,10.3-2.1s7.2,0.7,10.3,2.1
		c3.1,1.4,5.8,3.4,8,5.9c2.3,2.5,4,5.4,5.3,8.6c1.3,3.3,1.9,6.8,1.9,10.5C584.9,755.9,584.3,759.4,583.2,762.6z"/>
	
		<linearGradient id="SVGID_1_" gradientUnits="userSpaceOnUse" x1="224.7958" y1="769.3629" x2="585.0961" y2="409.0627" gradientTransform="matrix(1 0 0 -1 0 951.89)">
		<stop  offset="0" style="stop-color:#E84E1B"/>
		<stop  offset="1" style="stop-color:#F9DA19"/>
	</linearGradient>
	<path fill="url(#SVGID_1_)" d="M604.2,362.7v113.9c0,28.9-10.8,55.2-28.5,75.3c-8.1,9.2-17.7,17.1-28.5,23.3
		c-8.8,5.1-18.4,9-28.5,11.7c-9.1,2.3-18.6,3.6-28.5,3.6c-28.9,0-55.2-10.8-75.3-28.5c-23.6-20.9-38.6-51.4-38.6-85.4v-56.9
		c0-15.7,12.8-28.5,28.5-28.5c3,0,5.9,0.5,8.6,1.3c11.5,3.6,19.9,14.4,19.9,27.1v56.9c0,15.7,12.8,28.5,28.5,28.5
		s28.5-12.8,28.5-28.5V248.8c0-15.7,12.8-28.5,28.5-28.5c15.7,0,28.5,12.7,28.5,28.5v28.5c15.7,0,28.5,12.7,28.5,28.5v28.5
		C591.5,334.2,604.2,346.9,604.2,362.7z M234.1,391.1v28.5c0,15.7,12.8,28.5,28.5,28.5v28.5c0,15.7,12.8,28.5,28.5,28.5
		s28.5-12.7,28.5-28.5V248.8c0-15.7,12.8-28.5,28.5-28.5s28.5,12.8,28.5,28.5v56.9c0,12.8,8.4,23.5,19.9,27.1
		c2.7,0.9,5.6,1.3,8.6,1.3c15.7,0,28.5-12.7,28.5-28.5v-56.9c0-34-14.9-64.5-38.6-85.4c-20.1-17.7-46.4-28.5-75.3-28.5
		c-9.8,0-19.4,1.2-28.5,3.6c-10.1,2.6-19.6,6.5-28.5,11.7c-10.7,6.2-20.3,14.1-28.5,23.3c-17.7,20.1-28.5,46.4-28.5,75.3v113.9
		C205.6,378.4,218.4,391.1,234.1,391.1z"/>
</g>
</svg>
