<?xml version="1.0" encoding="utf-8"?>
<!-- Generator: Adobe Illustrator 16.0.0, SVG Export Plug-In . SVG Version: 6.00 Build 0)  -->
<!DOCTYPE svg PUBLIC "-//W3C//DTD SVG 1.1//EN" "http://www.w3.org/Graphics/SVG/1.1/DTD/svg11.dtd">
<svg version="1.1" id="Capa_1" xmlns="http://www.w3.org/2000/svg" xmlns:xlink="http://www.w3.org/1999/xlink" x="0px" y="0px"
	 width="163.063px" height="199.438px" viewBox="0 0 163.063 199.438" enable-background="new 0 0 163.063 199.438"
	 xml:space="preserve">
<g>
	<g>
		<g>
			<g>
				<g>
					<path fill="#FFFFFF" d="M149.026,179.584c0,10.756-8.722,19.477-19.478,19.477l0,0c-10.758,0-19.477-8.721-19.477-19.477
						V62.114c0-10.758,8.719-19.477,19.477-19.477l0,0c10.756,0,19.478,8.719,19.478,19.477V179.584z"/>
				</g>
				<path fill="#FFFFFF" d="M129.549,42.638c-7.179,0-13.38,3.926-16.758,9.708c9.458,1.335,16.758,9.377,16.758,19.204v117.47
					c0,3.577-1.036,6.887-2.72,9.766c0.898,0.127,1.79,0.275,2.72,0.275c10.756,0,19.478-8.721,19.478-19.477V62.114
					C149.026,51.356,140.305,42.638,129.549,42.638z"/>
				<g>
					<g>
						<path fill="#FFFFFF" d="M15.375,179.584c0,10.756,8.721,19.477,19.477,19.477l0,0c10.757,0,19.477-8.721,19.477-19.477V62.114
							c0-10.758-8.72-19.477-19.477-19.477l0,0c-10.756,0-19.477,8.719-19.477,19.477V179.584z"/>
					</g>
					<path fill="#FFFFFF" d="M34.852,42.638c7.18,0,13.381,3.926,16.76,9.708c-9.46,1.335-16.76,9.377-16.76,19.204v117.47
						c0,3.577,1.036,6.887,2.718,9.766c-0.896,0.127-1.786,0.275-2.718,0.275c-10.756,0-19.477-8.721-19.477-19.477V62.114
						C15.375,51.356,24.096,42.638,34.852,42.638z"/>
				</g>
			</g>
			<g>
				<path fill="#FFFFFF" d="M151.594,70.999l-2.567-0.747c0,0.618,0,1.37,0,2.13c0,4.779-29.126,34.264-67.452,34.264
					c-38.329,0-66.199-29.075-66.199-33.856c0-0.897,0-1.51,0-3.071c0,0-14.994,0.743-14.994,8.56
					c0,5.626,8.586,20.05,12.695,24.158c10.319,10.323,44.49,36.429,71.4,36.429c26.72,0,55.93-26.759,65.626-36.452
					c4.326-4.325,12.659-17.505,12.659-25.008C162.762,77.404,161.155,74.051,151.594,70.999z"/>
			</g>
		</g>
	</g>
	<circle fill="#FFFFFF" cx="34.851" cy="16.715" r="16.349"/>
	<circle fill="#FFFFFF" cx="129.548" cy="16.715" r="16.35"/>
</g>
</svg>
